PathFileType	3	(X/Y/Z)	D:\minhoCalibration\240510\subject1_KPNP\preferred\preferred05.trc
DataRate	CameraRate	NumFrames	NumMarkers	Units	OrigDataRate	OrigDataStartFrame	OrigNumFrames
200.0	200.0	27	10	mm	200.0	374	162	
Frame#	Time	Left_Ankle_Outer1			Left_Ankle_Inner1			Left_Knee_Outer1			Left_Knee_Inner1			Left_Wrist1			Right_Wrist1			Right_Knee_Inner1			Right_Knee_Outer1			Right_Ankle_Inner1			Right_Ankle_Outer1			
		X1	Y1	Z1	X2	Y2	Z2	X3	Y3	Z3	X4	Y4	Z4	X5	Y5	Z5	X6	Y6	Z6	X7	Y7	Z7	X8	Y8	Z8	X9	Y9	Z9	X10	Y10	Z10	
374	1.86	-469.07034	126.96327	-563.22961	-522.08618	129.63278	-549.11383	-441.44714	545.32367	-372.0394	-549.84674	511.16525	-398.51447	-444.5737	953.99164	-563.84552	-731.10046	974.08752	-767.36029	-805.72321	502.16882	-729.29095	-854.00519	552.94806	-827.03259	-689.45361	186.61519	-1026.5782	-734.04285	214.27261	-1106.2019
375	1.865	-467.48676	126.18594	-563.41455	-520.52484	129.21962	-549.81866	-438.96475	544.85223	-373.1326	-547.29315	510.82773	-400.35184	-440.49936	957.56952	-560.94562	-729.83868	976.02563	-760.4339	-811.83746	506.90878	-714.15643	-860.31683	556.85168	-811.35242	-694.21521	196.14926	-1018.188	-739.71588	224.91754	-1097.0122
376	1.87	-466.52927	125.53459	-563.55768	-519.42072	128.90215	-550.27985	-436.01974	544.58887	-374.65665	-544.43842	510.89453	-401.99139	-436.37915	961.40436	-558.25757	-728.62799	978.78448	-753.62427	-816.91833	511.60495	-698.22119	-866.31396	561.0437	-794.86151	-698.7627	206.37648	-1009.1705	-745.38629	236.64896	-1087.3372
377	1.875	-465.96835	125.12934	-563.81506	-518.91779	128.78482	-550.48999	-432.84735	544.60535	-376.72266	-541.27856	511.51813	-403.44446	-432.17886	965.39832	-555.68823	-727.77698	981.05237	-746.18036	-821.08783	516.69379	-680.95996	-871.81335	565.50439	-777.65686	-702.73376	217.48828	-1000.0215	-750.97729	248.79173	-1076.584
378	1.88	-465.70398	124.85445	-563.98083	-518.58777	128.92371	-550.56628	-429.36353	545.00562	-379.34906	-537.83038	512.68408	-404.73856	-427.87238	969.49115	-553.40204	-726.94501	984.20978	-738.38287	-824.58679	522.32251	-664.00079	-876.84631	570.27045	-759.66266	-706.25348	229.76628	-990.51355	-756.63501	261.78308	-1065.2961
379	1.885	-465.5481	124.82038	-564.21313	-518.24237	129.26387	-550.55286	-425.6131	545.67474	-382.40826	-534.16748	514.23517	-405.96634	-423.19858	973.83002	-551.52814	-726.44067	987.61481	-730.12067	-826.59918	527.46234	-647.24951	-881.30328	575.25024	-740.87476	-709.16937	242.71539	-981.07977	-762.41461	275.18594	-1053.5989
380	1.89	-465.36542	125.00127	-564.34167	-517.8927	129.8329	-550.55957	-421.68286	546.61871	-385.96515	-530.33624	516.047	-407.29187	-418.3576	978.28815	-550.13977	-726.19238	991.16895	-721.39594	-827.4585	533.51239	-627.61304	-885.04645	580.44733	-721.47119	-711.13831	257.09775	-971.11987	-767.89105	288.96759	-1041.4397
381	1.895	-464.01215	126.04432	-564.92151	-517.07001	130.2258	-550.06256	-417.59271	547.82837	-389.88074	-526.23273	518.07404	-409.01093	-413.41965	982.8916	-549.76788	-726.2851	995.5603	-711.73138	-827.13202	539.19141	-608.90753	-887.93933	585.73547	-701.34869	-712.3576	272.3468	-960.89758	-773.01837	302.58954	-1028.5438
382	1.9	-463.76453	126.37398	-564.84369	-516.37823	131.20221	-549.87445	-413.561	549.19586	-394.37479	-522.03162	520.26312	-410.96237	-407.90695	987.52533	-550.4071	-727.04248	1000.1628	-700.76904	-825.78229	544.87701	-590.09619	-890.03876	591.09015	-680.74829	-713.06348	288.7576	-950.46198	-777.57532	316.89282	-1015.4654
383	1.905	-463.1026	126.977	-564.87781	-515.4978	132.39117	-549.94775	-409.1955	550.78735	-398.88205	-517.22083	522.35553	-414.39075	-401.93469	991.94476	-552.42169	-727.27002	1005.0577	-689.52545	-823.21661	550.37622	-570.50195	-891.17969	596.48981	-659.13745	-712.8847	306.51135	-938.83246	-781.00525	331.76398	-1001.4529
384	1.91	-462.51517	127.53999	-564.8125	-514.45282	133.62842	-549.70142	-404.73608	552.56421	-403.52054	-512.83087	524.63757	-417.14453	-395.66171	995.93903	-555.82367	-727.62689	1010.8777	-677.30908	-819.57751	555.82068	-550.4632	-891.32849	601.93823	-636.2569	-712.33563	324.8609	-926.00183	-782.64545	347.77283	-986.89874
385	1.915	-461.43866	128.46895	-564.91052	-513.08484	134.80325	-549.07562	-400.06509	554.58881	-408.35037	-508.43848	527.06274	-419.94656	-389.21887	999.58923	-560.43726	-727.76099	1015.9875	-664.547	-814.98749	561.49744	-529.3233	-890.68335	607.62512	-612.69531	-711.40985	343.3324	-912.17279	-782.86548	365.68701	-971.82562
386	1.92	-460.40588	129.51723	-564.95453	-511.83844	136.38217	-548.66083	-395.33936	556.81317	-413.36963	-503.8287	529.52124	-423.02414	-382.71945	1003.0111	-566.22827	-727.3526	1021.2463	-651.43353	-809.36267	567.2417	-508.7478	-889.32178	613.87048	-587.92834	-710.14771	362.26962	-897.19226	-782.44849	384.93011	-955.73553
387	1.925	-459.29126	130.89665	-565.12744	-510.61694	138.14629	-548.29285	-390.24521	559.07599	-418.71982	-499.17917	532.13574	-426.04816	-375.94321	1006.1566	-573.14447	-726.10541	1027.2634	-638.24713	-802.78625	573.71906	-487.26108	-887.10901	620.65509	-562.76007	-708.8147	381.5434	-881.11005	-781.75507	405.16367	-938.53436
388	1.93	-458.44983	132.21059	-565.06451	-509.37177	139.96779	-547.38654	-385.34357	561.47101	-424.22003	-495.05203	535.49225	-427.30795	-370.49048	1009.2771	-580.14142	-724.50037	1032.4425	-625.00653	-794.66357	580.68719	-465.02908	-883.60889	628.02698	-536.93994	-708.02759	400.70193	-864.26282	-781.2868	425.93735	-919.84058
389	1.935	-457.55493	133.83148	-564.99689	-508.27496	141.98431	-546.29669	-380.323	563.9032	-429.95996	-489.55469	537.60938	-432.00702	-365.23212	1012.4706	-587.99463	-722.26532	1038.4407	-611.61682	-785.56952	588.71942	-442.45157	-878.73981	636.11554	-510.15186	-706.8761	420.61298	-846.50116	-781.27167	447.77136	-900.30084
390	1.94	-456.8338	135.70442	-564.94	-507.28815	144.22893	-545.10992	-375.32892	566.4021	-435.84543	-484.56067	540.51562	-434.79102	-360.71384	1015.6971	-596.36719	-718.85767	1044.4369	-599.0025	-774.87262	597.24243	-420.57773	-872.57129	645.01306	-482.88745	-707.43842	440.46133	-828.48077	-782.00256	469.92453	-879.7168
391	1.945	-456.4411	137.57155	-564.72943	-506.62106	146.68398	-543.66437	-370.32422	569.07684	-441.7789	-479.97302	544.06378	-436.18848	-356.92862	1019.0654	-605.13989	-715.05774	1051.0569	-586.23267	-762.99652	607.36731	-397.6539	-865.02576	654.71002	-455.38083	-707.95624	460.99142	-809.92157	-783.72046	492.33939	-858.07629
392	1.95	-456.24335	139.64914	-564.46283	-506.00684	149.44484	-541.98132	-365.31201	571.71429	-447.85663	-475.06512	547.33691	-438.13477	-353.48169	1022.7052	-614.20209	-710.29443	1057.1324	-574.67908	-749.57214	617.88916	-375.00919	-855.88483	665.12207	-427.5885	-708.88391	482.09875	-791.32385	-786.6839	515.06073	-835.55402
393	1.955	-456.25851	141.85437	-564.12115	-505.49936	152.20174	-540.10663	-360.3569	574.40234	-454.0592	-469.75775	550.23218	-440.77887	-351.40771	1026.0258	-623.3949	-705.04773	1064.3867	-563.07434	-734.98706	629.362	-352.64124	-845.27399	676.15881	-399.7475	-711.39105	503.91339	-771.90808	-790.9115	537.93842	-812.07849
394	1.96	-456.50272	144.22087	-563.75763	-505.26315	155.10515	-538.17529	-355.47836	577.0271	-460.2482	-463.70721	553.55322	-443.53091	-349.49292	1029.4596	-632.76306	-699.37769	1070.583	-552.49762	-719.60193	641.745	-330.54181	-833.04785	688.07507	-371.76605	-712.73737	526.62665	-752.63818	-795.8136	560.9093	-787.63214
395	1.965	-457.09113	146.54309	-563.40906	-505.14041	158.01912	-536.15924	-350.65677	579.61896	-466.4859	-458.83536	557.06	-443.84079	-348.27493	1032.616	-642.211	-693.35284	1077.5032	-542.64154	-703.45398	654.92377	-308.76715	-819.1676	700.98914	-344.18317	-716.40747	549.39337	-732.15991	-801.39166	583.64093	-762.11359
396	1.97	-458.27292	148.83694	-562.90656	-505.22668	160.78499	-534.08228	-346.00131	581.92682	-472.83817	-452.24121	559.59033	-446.7081	-347.89999	1035.3186	-651.56635	-686.2525	1084.0441	-533.83368	-686.16595	668.94055	-287.93716	-804.02979	714.82678	-316.99472	-721.79187	572.02826	-710.24268	-807.47736	607.09253	-735.92688
397	1.975	-459.60657	151.02747	-562.71088	-505.1673	163.32208	-530.52753	-341.37967	584.00854	-479.19672	-446.65717	562.77386	-446.98276	-347.70816	1037.9769	-661.11761	-679.97693	1091.1553	-525.14899	-667.59296	683.69354	-267.28574	-787.11188	729.74701	-290.3627	-724.10834	595.52637	-689.27789	-812.68256	629.26727	-708.02252
398	1.98	-461.40912	153.04291	-562.72601	-505.60397	165.90088	-528.23993	-337.60617	585.55627	-485.54083	-440.45999	565.20624	-447.88525	-348.26117	1040.2902	-670.55945	-672.94995	1097.3488	-518.026	-648.68604	699.65594	-248.06775	-769.32587	745.70343	-264.75079	-729.73883	617.33813	-665.18457	-818.49719	653.30713	-679.42834
399	1.985	-463.73682	154.95682	-562.81097	-506.4621	168.19298	-526.20599	-333.6069	586.78992	-491.89328	-434.38104	567.14801	-448.98383	-348.96347	1042.249	-680.3374	-666.19635	1103.6525	-510.96762	-629.46887	715.56903	-228.57935	-750.07672	762.74994	-240.17284	-734.24298	639.00165	-641.18848	-823.11633	676.09314	-649.63312
400	1.99	-466.39636	156.7368	-562.97363	-507.35431	170.57918	-524.47064	-330.03781	587.63763	-498.19849	-428.77747	568.51324	-449.68256	-351.0238	1044.0642	-689.07367	-659.32361	1109.97	-504.3028	-608.54431	732.10864	-210.4381	-729.84668	780.98108	-216.24838	-739.09711	660.02026	-615.86926	-827.37079	699.17261	-619.19617
